<svg xmlns="http://www.w3.org/2000/svg" width="1920" height="1080" viewBox="0 0 1920 1080"><rect width="100%" height="100%" fill="#DDDDDD"/><path fill="#999999" d="M529.94 418.48h31.87v194.49h-18.56q-4.3 0-7.19-1.41-2.9-1.41-5.59-4.78L428.93 477.13q.8 8.87.8 16.4v119.44h-31.87V418.48h18.96q2.29 0 3.97.2 1.68.21 2.96.81 1.28.61 2.49 1.75t2.69 3.03l101.95 130.19q-.41-4.71-.67-9.28-.27-4.57-.27-8.47zm131 54.34q15.33 0 27.91 4.98 12.57 4.97 21.52 14.12 8.94 9.15 13.78 22.33Q729 527.43 729 543.7q0 16.41-4.85 29.59-4.84 13.18-13.78 22.46-8.95 9.28-21.52 14.26-12.58 4.98-27.91 4.98-15.47 0-28.11-4.98t-21.59-14.26q-8.94-9.28-13.85-22.46t-4.91-29.59q0-16.27 4.91-29.45t13.85-22.33q8.95-9.15 21.59-14.12 12.64-4.98 28.11-4.98m0 116.61q17.22 0 25.49-11.56 8.27-11.57 8.27-33.9t-8.27-34.03-25.49-11.7q-17.49 0-25.89 11.77-8.41 11.77-8.41 33.96t8.41 33.83q8.4 11.63 25.89 11.63m200.4-170.95v194.49h-36.31V418.48zm71.42 194.49h-33.22v-138h20.31q6.46 0 8.48 6.06l2.15 10.22q3.63-4.04 7.6-7.4 3.96-3.36 8.47-5.78t9.68-3.84q5.18-1.41 11.37-1.41 13.05 0 21.45 7.06 8.41 7.06 12.58 18.76 3.23-6.85 8.07-11.76t10.62-8.01q5.79-3.09 12.31-4.57t13.11-1.48q11.44 0 20.31 3.5 8.88 3.49 14.93 10.22 6.06 6.72 9.22 16.41 3.16 9.68 3.16 22.19v87.83h-33.22v-87.83q0-13.18-5.79-19.84-5.78-6.66-16.94-6.66-5.12 0-9.49 1.75t-7.66 5.05q-3.3 3.29-5.18 8.27t-1.88 11.43v87.83h-33.36v-87.83q0-13.85-5.58-20.17-5.58-6.33-16.34-6.33-7.27 0-13.52 3.57-6.26 3.56-11.64 9.75zm264.97-35.64v-23.27q-14.39.67-24.21 2.49-9.82 1.81-15.74 4.64-5.92 2.82-8.47 6.59-2.56 3.76-2.56 8.2 0 8.74 5.18 12.51t13.52 3.77q10.22 0 17.69-3.7 7.46-3.7 14.59-11.23m-70.21-72.5-5.92-10.62q23.81-21.79 57.3-21.79 12.1 0 21.65 3.97 9.55 3.96 16.14 11.02 6.59 7.07 10.02 16.88 3.43 9.82 3.43 21.52v87.16h-15.06q-4.71 0-7.26-1.41-2.56-1.41-4.04-5.72l-2.96-9.95q-5.24 4.71-10.22 8.27t-10.36 5.99q-5.38 2.42-11.5 3.69-6.12 1.28-13.51 1.28-8.75 0-16.14-2.35-7.4-2.36-12.78-7.06-5.38-4.71-8.34-11.7-2.96-7-2.96-16.28 0-5.24 1.75-10.42t5.72-9.89q3.96-4.71 10.29-8.88 6.32-4.16 15.53-7.26 9.21-3.09 21.45-5.04t27.98-2.36v-8.07q0-13.85-5.92-20.51t-17.08-6.66q-8.07 0-13.38 1.89-5.32 1.88-9.35 4.23-4.04 2.36-7.33 4.24-3.3 1.88-7.33 1.88-3.5 0-5.92-1.81-2.42-1.82-3.9-4.24m184.27 35.78q6.18 0 10.76-1.68 4.57-1.68 7.59-4.64 3.03-2.96 4.58-7.13 1.54-4.17 1.54-9.15 0-10.22-6.12-16.2-6.12-5.99-18.35-5.99-12.24 0-18.36 5.99-6.12 5.98-6.12 16.2 0 4.84 1.54 9.01 1.55 4.17 4.58 7.2 3.02 3.03 7.66 4.71t10.7 1.68m37.52 78.55q0-4.04-2.42-6.59-2.42-2.56-6.59-3.97t-9.75-2.09q-5.58-.67-11.84-1-6.25-.34-12.91-.61t-12.98-1.08q-5.51 3.1-8.94 7.27t-3.43 9.68q0 3.63 1.81 6.79 1.82 3.16 5.79 5.45 3.96 2.29 10.29 3.56 6.32 1.28 15.46 1.28 9.28 0 16.01-1.41 6.72-1.41 11.09-3.9 4.38-2.49 6.39-5.92 2.02-3.43 2.02-7.46m-6.59-139.48h39.68v12.37q0 5.92-7.13 7.27l-12.37 2.28q2.82 7.13 2.82 15.61 0 10.22-4.1 18.49t-11.37 14.05q-7.26 5.79-17.15 8.95-9.88 3.16-21.31 3.16-4.04 0-7.81-.4-3.76-.41-7.39-1.08-6.46 3.9-6.46 8.74 0 4.17 3.83 6.12 3.84 1.95 10.16 2.76t14.39 1.01 16.54.87q8.48.68 16.55 2.36t14.39 5.31 10.15 9.89q3.84 6.25 3.84 16.07 0 9.14-4.51 17.75-4.5 8.61-13.05 15.34-8.54 6.72-20.98 10.82t-28.31 4.1q-15.6 0-27.17-3.02-11.57-3.03-19.23-8.07-7.67-5.05-11.43-11.64-3.77-6.59-3.77-13.71 0-9.69 5.85-16.21 5.85-6.53 16.07-10.43-5.51-2.82-8.74-7.53t-3.23-12.37q0-3.1 1.15-6.39 1.14-3.3 3.36-6.52 2.22-3.23 5.58-6.12 3.36-2.9 7.94-5.18-10.5-5.65-16.48-15.07-5.99-9.41-5.99-22.05 0-10.23 4.11-18.5 4.1-8.27 11.43-14.12t17.35-8.94q10.02-3.1 21.86-3.1 8.87 0 16.67 1.82 7.8 1.81 14.26 5.31m86.89 48.42h62.67q0-6.46-1.81-12.17-1.82-5.72-5.45-10.02-3.63-4.31-9.21-6.79-5.58-2.49-12.98-2.49-14.39 0-22.66 8.2-8.28 8.21-10.56 23.27m84.73 20.04h-85.41q.81 10.63 3.77 18.36t7.8 12.78q4.84 5.04 11.5 7.53t14.73 2.49 13.92-1.89q5.85-1.88 10.22-4.16 4.37-2.29 7.67-4.17 3.29-1.89 6.39-1.89 4.17 0 6.18 3.1l9.55 12.1q-5.51 6.46-12.37 10.83t-14.32 6.99q-7.47 2.63-15.2 3.7-7.74 1.08-15 1.08-14.39 0-26.77-4.78-12.37-4.77-21.52-14.12-9.14-9.35-14.39-23.13-5.24-13.79-5.24-31.95 0-14.12 4.57-26.56t13.11-21.66q8.55-9.21 20.85-14.59 12.31-5.38 27.78-5.38 13.04 0 24.07 4.17t18.97 12.17q7.93 8.01 12.44 19.64 4.5 11.63 4.5 26.56 0 7.54-1.61 10.16t-6.19 2.62"/></svg>